<svg xmlns="http://www.w3.org/2000/svg" width="64" height="64" viewBox="0 0 64 64" fill="none">
<!-- 科技感机器人头部 -->
<circle cx="32" cy="32" r="23.5" fill="url(#paint0_linear)" stroke="url(#paint1_linear)" stroke-width="1"/>

<!-- 科技感天线 -->
<path d="M32 8L32 12.8" stroke="#6366F1" stroke-width="3.2" stroke-linecap="round"/>
<circle cx="32" cy="6.4" r="3.2" fill="#6366F1"/>

<!-- 左右天线装饰 -->
<path d="M14.9 17.1L10.7 12.8" stroke="#818CF8" stroke-width="2.1" stroke-linecap="round"/>
<circle cx="9.6" cy="11.7" r="1.7" fill="#818CF8"/>
<path d="M49.1 17.1L53.3 12.8" stroke="#818CF8" stroke-width="2.1" stroke-linecap="round"/>
<circle cx="54.4" cy="11.7" r="1.7" fill="#818CF8"/>

<!-- 科技感眼睛 - 发光效果 -->
<circle cx="23.5" cy="27.7" r="5.3" fill="#6366F1" opacity="0.3"/>
<circle cx="23.5" cy="27.7" r="3.2" fill="#A78BFA"/>
<circle cx="24.5" cy="26.7" r="1.1" fill="#FFFFFF"/>

<circle cx="40.5" cy="27.7" r="5.3" fill="#6366F1" opacity="0.3"/>
<circle cx="40.5" cy="27.7" r="3.2" fill="#A78BFA"/>
<circle cx="41.6" cy="26.7" r="1.1" fill="#FFFFFF"/>

<!-- W字形核心能量标识 -->
<path d="M19.2 37.3L22.4 46.9L26.7 39.5L30.9 46.9L35.2 39.5L39.5 46.9L42.7 37.3" stroke="#A78BFA" stroke-width="3.2" stroke-linecap="round" stroke-linejoin="round" fill="none" opacity="0.9"/>
<path d="M19.2 37.3L22.4 46.9L26.7 39.5L30.9 46.9L35.2 39.5L39.5 46.9L42.7 37.3" stroke="#FFFFFF" stroke-width="1.7" stroke-linecap="round" stroke-linejoin="round" fill="none" opacity="0.6"/>

<!-- 科技电路纹理 -->
<path d="M12.8 32L17.1 32M46.9 32L51.2 32" stroke="#818CF8" stroke-width="1.7" opacity="0.6"/>
<path d="M17.1 21.3L12.8 25.6M46.9 21.3L51.2 25.6" stroke="#818CF8" stroke-width="1.7" opacity="0.6"/>
<path d="M17.1 42.7L12.8 38.4M46.9 42.7L51.2 38.4" stroke="#818CF8" stroke-width="1.7" opacity="0.6"/>

<!-- 底部科技装饰 -->
<path d="M21.3 51.2C21.3 51.2 25.6 54.4 32 54.4C38.4 54.4 42.7 51.2 42.7 51.2" stroke="#818CF8" stroke-width="2.6" stroke-linecap="round" fill="none"/>
<rect x="27.7" y="53.3" width="8.5" height="2.1" rx="1.1" fill="#6366F1"/>

<!-- 左右科技装饰 -->
<path d="M9.6 32C9.6 32 6.4 32 6.4 27.7C6.4 23.5 9.6 23.5 9.6 23.5" stroke="#A78BFA" stroke-width="2.1" fill="none" opacity="0.7"/>
<path d="M54.4 32C54.4 32 57.6 32 57.6 27.7C57.6 23.5 54.4 23.5 54.4 23.5" stroke="#A78BFA" stroke-width="2.1" fill="none" opacity="0.7"/>

<!-- 能量点缀 -->
<circle cx="14.9" cy="32" r="1.1" fill="#A78BFA" opacity="0.8"/>
<circle cx="49.1" cy="32" r="1.1" fill="#A78BFA" opacity="0.8"/>
<circle cx="32" cy="17.1" r="1.1" fill="#A78BFA" opacity="0.8"/>
<circle cx="32" cy="49.1" r="1.1" fill="#A78BFA" opacity="0.8"/>

<!-- 耳朵装饰 -->
<path d="M60.4 29.1H59.9C60.2 30.8 60.3 32.4 60.3 34.1C60.3 36.1 60.1 38.1 59.7 40H61.3C61.9 40 62.4 39.7 62.8 39.3C63.2 38.9 63.5 38.4 63.5 37.8V32C63.5 31.7 63.5 31.4 63.4 31.1C63.3 30.8 63.1 30.5 62.9 30.3C62.7 30.1 62.4 29.9 62.1 29.8C61.8 29.7 61.5 29.7 61.2 29.7L60.4 29.1Z" fill="#818CF8"/>
<path d="M3.6 34.1C3.6 32.4 3.8 30.8 4.1 29.1H3.6C2.6 29.1 2.1 29.4 1.5 30C0.9 30.6 0.7 31.3 0.7 32V37.8C0.7 38.4 0.9 39 1.4 39.5C1.8 39.9 2.3 40.2 2.9 40.2H4.3C3.9 38.1 3.7 36.1 3.6 34.1Z" fill="#A78BFA"/>

<defs>
<linearGradient id="paint0_linear" x1="14.2" y1="9.5" x2="53.5" y2="62.4" gradientUnits="userSpaceOnUse">
<stop stop-color="#A78BFA"/>
<stop offset="0.3" stop-color="#818CF8"/>
<stop offset="0.6" stop-color="#6366F1"/>
<stop offset="1" stop-color="#4F46E5"/>
</linearGradient>
<linearGradient id="paint1_linear" x1="14.2" y1="9.5" x2="53.5" y2="62.4" gradientUnits="userSpaceOnUse">
<stop stop-color="#A78BFA"/>
<stop offset="0.3" stop-color="#818CF8"/>
<stop offset="0.6" stop-color="#6366F1"/>
<stop offset="1" stop-color="#4F46E5"/>
</linearGradient>
</defs>
</svg>

